<?xml version="1.0" standalone="no"?>
<!DOCTYPE svg PUBLIC "-//W3C//DTD SVG 20010904//EN"
 "http://www.w3.org/TR/2001/REC-SVG-20010904/DTD/svg10.dtd">
<svg version="1.0" xmlns="http://www.w3.org/2000/svg"
 width="2000.000000pt" height="2000.000000pt" viewBox="0 0 2000.000000 2000.000000"
 preserveAspectRatio="xMidYMid meet">

<g transform="translate(0.000000,2000.000000) scale(0.100000,-0.100000)"
fill="#000000" stroke="none">
<path d="M13658 17268 c-44 -68 -263 -435 -362 -606 -204 -356 -636 -1151
-636 -1172 0 -17 31 -39 46 -33 8 3 29 33 46 66 90 178 444 810 820 1461 93
160 148 266 146 280 -4 30 -41 33 -60 4z"/>
<path d="M12517 16768 c-26 -20 -86 -312 -230 -1133 -35 -200 -35 -229 6 -223
26 4 19 -26 131 533 122 605 154 798 137 819 -16 19 -22 20 -44 4z"/>
<path d="M8372 16498 c-9 -9 -12 -186 -12 -735 l0 -723 -24 0 c-47 0 -328 -52
-467 -86 -844 -207 -1623 -695 -2087 -1307 -339 -449 -548 -986 -624 -1602
-20 -168 -17 -610 5 -755 111 -712 465 -1284 1067 -1722 559 -407 1281 -691
2450 -963 880 -205 908 -212 1060 -267 219 -79 361 -185 423 -316 29 -61 32
-75 32 -167 0 -91 -3 -106 -31 -165 -62 -129 -161 -204 -324 -247 -108 -28
-287 -24 -450 11 -813 170 -1536 431 -2432 878 l-337 168 -770 0 c-686 0 -771
-2 -785 -16 -14 -14 -16 -149 -16 -1340 0 -917 3 -1331 11 -1345 15 -29 91
-75 310 -188 614 -316 1417 -579 2213 -725 77 -15 261 -40 410 -57 148 -16
306 -37 351 -45 44 -8 99 -17 123 -20 34 -5 42 -11 43 -28 0 -11 0 -332 -1
-712 -1 -630 0 -692 15 -707 15 -16 147 -17 1674 -17 1530 0 1660 1 1672 17
12 13 14 149 17 769 l2 754 23 4 c12 3 67 12 122 21 397 63 888 240 1288 464
890 499 1442 1293 1600 2301 29 185 31 651 4 835 -49 330 -128 583 -266 850
-400 775 -1226 1361 -2296 1630 -134 33 -393 86 -965 195 -471 90 -870 202
-1083 303 -200 95 -349 222 -415 355 -34 70 -37 83 -37 161 0 77 4 92 32 147
43 82 117 161 194 207 l64 38 100 -6 c430 -27 1117 -224 1729 -495 268 -118
678 -331 966 -500 l115 -68 718 -7 c566 -6 720 -5 732 5 13 11 15 187 15 1465
l0 1452 -23 34 c-33 50 -114 102 -245 158 -65 27 -200 85 -302 129 -102 44
-248 102 -325 130 -551 198 -1307 362 -1723 373 -90 3 -94 4 -104 28 -7 18 -7
67 1 156 16 186 15 1277 -1 1293 -17 17 -3419 17 -3436 0z m3358 -781 c0 -569
3 -717 13 -731 10 -14 41 -21 147 -32 763 -79 1519 -274 2115 -544 228 -103
445 -225 445 -249 3 -203 -2 -2766 -5 -2769 -2 -2 -61 32 -132 75 -997 616
-2107 1011 -3073 1094 -170 15 -529 6 -669 -16 -460 -72 -713 -238 -771 -506
-16 -71 -8 -197 15 -264 9 -27 38 -81 63 -119 159 -240 607 -415 1507 -590
611 -119 756 -149 950 -198 633 -158 1139 -399 1570 -747 95 -76 317 -298 394
-394 567 -703 722 -1714 407 -2652 -93 -273 -198 -487 -357 -725 -474 -707
-1378 -1246 -2359 -1409 -108 -18 -176 -34 -181 -42 -5 -8 -9 -353 -9 -766 l0
-753 -920 0 -920 0 0 749 c0 601 -3 751 -13 759 -7 6 -91 16 -187 22 -714 44
-1283 148 -1860 340 -430 143 -764 300 -1121 526 l-119 75 0 1265 c0 695 2
1264 5 1264 2 0 132 -62 287 -139 320 -157 492 -235 757 -346 912 -380 1819
-604 2609 -645 582 -29 1143 81 1369 269 145 120 172 311 72 509 -72 145 -203
261 -404 357 -192 93 -367 146 -770 235 -805 178 -1178 274 -1580 406 -1444
477 -2233 1272 -2336 2354 -28 294 14 705 105 1026 212 749 646 1348 1316
1819 495 347 1114 601 1705 700 83 14 160 27 173 30 l22 5 0 735 0 735 870 0
870 0 0 -713z m-2005 548 c0 -20 -7 -20 -542 -20 -298 0 -544 -3 -547 -6 -4
-3 -1 -80 5 -170 7 -108 8 -295 4 -546 -7 -353 -9 -383 -25 -383 -15 0 -18 17
-23 143 -9 188 -9 992 0 1000 3 4 259 6 567 5 553 -3 561 -3 561 -23z m-871
-291 c8 -60 8 -592 0 -622 -5 -16 -13 -22 -28 -20 -21 3 -21 6 -24 313 -3 340
-1 375 27 375 14 0 20 -11 25 -46z m926 -943 l115 -6 -130 -24 c-124 -24 -152
-25 -610 -29 -264 -2 -534 -1 -601 3 l-120 7 4 29 4 29 612 -1 c336 -1 663 -4
726 -8z m-1406 -257 c36 -36 12 -47 -134 -64 -220 -24 -549 -113 -787 -211
-625 -260 -1188 -712 -1542 -1239 -188 -281 -293 -511 -371 -815 -161 -629
-95 -1306 183 -1878 127 -263 246 -435 434 -628 101 -104 113 -121 93 -134
-15 -9 -166 140 -264 260 -309 376 -492 800 -573 1325 -22 146 -25 594 -5 740
68 479 232 884 515 1270 379 516 946 955 1537 1190 271 107 579 179 825 193
33 2 63 4 67 5 4 1 14 -5 22 -14z m-1736 -976 c2 -11 -38 -59 -109 -130 -433
-437 -697 -961 -796 -1583 -25 -158 -25 -584 0 -745 49 -317 137 -585 285
-873 47 -91 72 -151 66 -157 -15 -15 -28 0 -87 105 -250 445 -374 995 -339
1509 14 202 39 360 87 544 126 481 408 949 760 1263 97 87 126 102 133 67z
m5164 -1577 c514 -185 920 -398 1261 -662 102 -79 132 -119 90 -119 -9 0 -91
49 -182 109 -469 307 -862 515 -1233 651 -62 23 -117 45 -122 50 -9 9 0 30 14
30 5 0 82 -26 172 -59z m901 -244 c274 -140 508 -296 670 -447 72 -67 97 -110
63 -110 -8 0 -58 35 -113 77 -276 216 -487 359 -690 466 -106 55 -140 87 -93
87 11 0 84 -33 163 -73z m-2642 -3533 c146 -43 257 -130 341 -266 57 -93 79
-167 85 -293 6 -131 -10 -213 -62 -320 -45 -91 -66 -118 -88 -109 -23 9 -22
16 14 74 75 122 105 294 75 424 -27 114 -71 191 -161 282 -83 84 -138 120
-240 159 -44 17 -61 28 -63 44 -4 26 22 28 99 5z m-4530 -239 c9 -98 10 -798
2 -1194 -6 -329 -6 -332 -27 -329 -21 3 -21 8 -29 433 -8 444 -3 1137 8 1156
4 5 14 9 23 7 13 -2 18 -19 23 -73z m-229 -26 c9 -58 10 -1293 1 -1761 -6
-339 -8 -368 -23 -368 -16 0 -18 28 -25 348 -14 599 -11 1783 4 1810 18 33 35
22 43 -29z m5335 -113 c70 -102 91 -269 54 -416 -27 -109 -66 -190 -91 -190
-25 0 -30 20 -13 54 78 153 80 329 8 510 -42 105 -17 129 42 42z m-4059 -2202
c3 -19 -3 -22 -50 -27 -29 -4 -353 -7 -721 -7 l-667 0 -10 26 c-6 14 -10 27
-10 30 0 2 327 3 728 2 l727 -3 3 -21z m3072 -1029 c58 -3 132 -8 165 -12 58
-6 59 -7 25 -15 -19 -4 -143 -12 -275 -18 -132 -5 -280 -14 -330 -19 -123 -14
-462 -39 -560 -43 -80 -3 -80 -3 -83 23 -3 24 0 27 45 32 151 20 838 67 883
61 14 -1 72 -6 130 -9z m-885 -267 c3 -57 5 -317 3 -578 -3 -467 -3 -475 -23
-475 -19 0 -20 9 -28 185 -4 102 -5 362 -1 578 6 367 7 392 24 392 16 0 19
-13 25 -102z m193 -329 c2 -285 0 -328 -13 -339 -10 -9 -19 -10 -26 -3 -11 11
-16 644 -4 662 4 7 14 11 23 9 15 -3 17 -35 20 -329z"/>
<path d="M10524 16333 c-274 -3 -324 -6 -334 -19 -30 -35 -6 -37 597 -38 323
-1 617 1 653 4 l65 5 -1 -95 c-1 -52 -5 -205 -8 -340 -4 -135 -3 -382 1 -550
l8 -305 25 0 25 0 6 205 c11 360 10 1100 -1 1121 -12 21 7 21 -1036 12z"/>
<path d="M11377 16173 c-10 -15 -17 -711 -10 -858 l8 -150 25 0 25 0 3 485 c1
267 0 495 -3 508 -5 21 -38 31 -48 15z"/>
<path d="M14275 14128 c-3 -7 -6 -545 -8 -1195 l-2 -1182 -75 60 c-243 194
-546 385 -870 547 -602 302 -1193 473 -1875 543 -179 19 -573 16 -725 -5 -435
-59 -762 -197 -975 -411 -121 -121 -191 -260 -198 -390 -2 -44 1 -50 18 -53
18 -2 22 6 31 67 46 292 364 544 834 660 431 106 937 100 1518 -20 829 -170
1637 -547 2253 -1050 98 -80 118 -90 138 -65 8 10 10 346 9 1257 l-3 1244 -33
3 c-20 2 -34 -2 -37 -10z"/>
<path d="M14087 13923 c-9 -8 -9 -1400 0 -1697 6 -223 7 -227 27 -224 21 3 21
9 27 268 8 354 11 1624 3 1644 -6 16 -45 22 -57 9z"/>
<path d="M10740 13220 c-599 -50 -1144 -298 -1360 -619 -96 -144 -139 -276
-147 -454 -10 -218 34 -379 150 -552 93 -139 294 -298 493 -391 103 -48 119
-51 127 -30 7 19 -2 26 -103 76 -245 123 -433 303 -529 512 -94 202 -100 443
-17 648 121 296 458 529 950 655 224 57 380 77 671 84 l260 6 0 25 c0 21 -6
26 -40 32 -67 11 -354 17 -455 8z"/>
<path d="M14103 9763 c-22 -8 -15 -27 45 -119 233 -356 387 -773 448 -1214 22
-157 25 -569 6 -710 -65 -473 -203 -849 -442 -1205 -497 -741 -1408 -1244
-2415 -1335 -67 -6 -125 -16 -132 -23 -8 -9 -12 -225 -15 -804 l-3 -792 -748
-1 c-411 0 -754 -3 -762 -6 -20 -8 -29 -42 -15 -59 11 -13 124 -15 806 -15
l793 0 12 22 c9 17 11 208 6 811 l-7 789 26 -6 c29 -8 312 33 486 70 790 167
1511 610 1954 1201 360 481 544 1051 545 1688 0 389 -54 681 -192 1045 -51
135 -188 395 -279 533 -85 127 -94 138 -117 130z"/>
<path d="M6842 8148 c-7 -7 -12 -17 -12 -23 0 -22 429 -247 705 -370 741 -332
1520 -548 2320 -644 430 -52 613 -65 920 -65 239 -1 322 3 410 17 127 20 272
57 356 91 221 89 400 259 476 452 25 62 27 81 28 199 0 151 -16 209 -57 203
-25 -3 -25 8 -12 -164 11 -155 -32 -276 -139 -390 -145 -155 -364 -255 -672
-306 -125 -20 -748 -17 -995 5 -983 90 -1929 339 -2755 727 -183 85 -228 108
-388 192 -93 48 -169 88 -171 88 -1 0 -7 -5 -14 -12z"/>
<path d="M7077 7643 c-22 -21 -1 -42 91 -88 357 -178 611 -285 957 -401 834
-280 1750 -424 2700 -424 342 0 411 5 418 32 8 30 -19 49 -61 42 -54 -8 -733
13 -972 31 -1105 82 -2063 317 -2902 711 -101 47 -187 90 -192 95 -12 11 -30
12 -39 2z"/>
<path d="M10307 3733 c-4 -3 -7 -14 -7 -24 0 -15 18 -18 173 -24 94 -3 359 -5
587 -3 l415 3 0 25 0 25 -581 3 c-319 1 -584 -1 -587 -5z"/>
<path d="M13629 15759 c-299 -172 -584 -335 -632 -363 -76 -44 -87 -54 -85
-75 7 -60 5 -61 663 315 345 197 633 367 639 377 13 20 -2 50 -26 55 -8 1
-259 -138 -559 -309z"/>
<path d="M6985 4394 c-511 -177 -805 -287 -982 -369 -57 -26 -73 -38 -73 -55
0 -11 6 -23 14 -26 33 -13 483 147 989 350 414 167 389 155 385 180 -2 12 -10
22 -18 23 -8 0 -150 -46 -315 -103z"/>
<path d="M7418 4224 c-118 -96 -322 -273 -559 -486 -112 -101 -346 -310 -519
-464 -173 -155 -371 -335 -439 -401 -114 -110 -123 -121 -112 -141 6 -12 17
-22 23 -22 25 0 217 164 638 545 146 132 371 335 500 451 315 282 580 534 580
549 0 7 -6 18 -14 24 -11 10 -31 -1 -98 -55z"/>
<path d="M7712 4103 c-48 -68 -222 -385 -307 -558 -130 -266 -234 -528 -221
-560 7 -18 40 -20 54 -2 5 6 56 110 111 231 121 260 300 620 382 767 33 58 59
108 59 112 0 11 -32 37 -45 37 -8 0 -22 -12 -33 -27z"/>
</g>
</svg>
